<svg width="84" height="82" viewBox="0 0 84 82" fill="none" xmlns="http://www.w3.org/2000/svg">
<path d="M42 0.361206C32.1062 0.361616 22.5353 3.88251 14.9999 10.2939C7.46445 16.7053 2.45626 25.5888 0.87139 35.3549C-0.713476 45.121 1.22841 55.1323 6.34958 63.5977C11.4708 72.063 19.437 78.4299 28.823 81.5591C30.9063 81.9237 31.6876 80.6738 31.6876 79.5799C31.6876 78.5904 31.6355 75.3091 31.6355 71.8195C21.1667 73.7466 18.4583 69.2676 17.625 66.9238C16.7003 64.6443 15.2345 62.6243 13.3542 61.0383C11.8958 60.257 9.8125 58.33 13.302 58.278C14.6345 58.4225 15.9124 58.8862 17.0276 59.6296C18.1428 60.373 19.0624 61.3743 19.7083 62.5487C20.2782 63.5724 21.0445 64.4736 21.9633 65.2007C22.8821 65.9278 23.9353 66.4665 25.0626 66.7858C26.19 67.1051 27.3692 67.1989 28.5328 67.0616C29.6964 66.9244 30.8215 66.559 31.8437 65.9862C32.024 63.8679 32.9681 61.8874 34.5 60.4134C25.2292 59.3717 15.5417 55.7778 15.5417 39.8405C15.4831 35.6994 17.0112 31.6929 19.8125 28.6426C18.5387 25.0435 18.6877 21.0938 20.2292 17.6009C20.2292 17.6009 23.7186 16.5071 31.6875 21.8717C38.5054 19.9966 45.703 19.9966 52.5208 21.8717C60.4895 16.4551 63.9792 17.6009 63.9792 17.6009C65.5208 21.0937 65.6699 25.0435 64.3958 28.6426C67.2056 31.6877 68.735 35.6977 68.6667 39.8405C68.6667 55.83 58.927 59.3717 49.6562 60.4134C50.6506 61.4213 51.4165 62.6313 51.9018 63.9614C52.387 65.2914 52.5804 66.7103 52.4688 68.1217C52.4688 73.6947 52.4166 78.1737 52.4166 79.5801C52.4166 80.6739 53.1979 81.9759 55.2812 81.5592C64.6507 78.4045 72.594 72.0227 77.6934 63.5531C82.7927 55.0834 84.7162 45.0772 83.1203 35.3205C81.5245 25.5639 76.5132 16.6919 68.9811 10.2883C61.449 3.88475 51.8863 0.366352 42 0.361206V0.361206Z" fill="white"/>
</svg>
