<svg width="84" height="84" viewBox="0 0 84 84" fill="none" xmlns="http://www.w3.org/2000/svg">
<path d="M64.25 14.7502C63.2611 14.7502 62.2944 15.0434 61.4722 15.5928C60.6499 16.1422 60.009 16.9231 59.6306 17.8367C59.2522 18.7504 59.1532 19.7557 59.3461 20.7256C59.539 21.6955 60.0152 22.5864 60.7145 23.2857C61.4137 23.985 62.3047 24.4612 63.2746 24.6541C64.2445 24.847 65.2498 24.748 66.1634 24.3696C67.0771 23.9911 67.8579 23.3503 68.4074 22.528C68.9568 21.7058 69.25 20.7391 69.25 19.7502C69.25 18.4241 68.7232 17.1523 67.7855 16.2146C66.8479 15.2769 65.5761 14.7502 64.25 14.7502ZM83.4167 24.8335C83.3356 21.3764 82.6882 17.956 81.5 14.7085C80.4406 11.9299 78.7916 9.41382 76.6667 7.3335C74.6034 5.19777 72.0815 3.55923 69.2917 2.54183C66.0527 1.3175 62.6285 0.655204 59.1667 0.583496C54.75 0.333496 53.3333 0.333496 42 0.333496C30.6667 0.333496 29.25 0.333496 24.8333 0.583496C21.3715 0.655204 17.9473 1.3175 14.7083 2.54183C11.9237 3.56953 9.4039 5.20667 7.33334 7.3335C5.19762 9.39674 3.55908 11.9187 2.54168 14.7085C1.31735 17.9474 0.655052 21.3716 0.583343 24.8335C0.333343 29.2502 0.333344 30.6668 0.333344 42.0002C0.333344 53.3335 0.333343 54.7502 0.583343 59.1668C0.655052 62.6287 1.31735 66.0529 2.54168 69.2918C3.55908 72.0817 5.19762 74.6036 7.33334 76.6668C9.4039 78.7937 11.9237 80.4308 14.7083 81.4585C17.9473 82.6828 21.3715 83.3451 24.8333 83.4168C29.25 83.6668 30.6667 83.6668 42 83.6668C53.3333 83.6668 54.75 83.6668 59.1667 83.4168C62.6285 83.3451 66.0527 82.6828 69.2917 81.4585C72.0815 80.4411 74.6034 78.8026 76.6667 76.6668C78.801 74.5942 80.4514 72.076 81.5 69.2918C82.6882 66.0443 83.3356 62.6239 83.4167 59.1668C83.4167 54.7502 83.6667 53.3335 83.6667 42.0002C83.6667 30.6668 83.6667 29.2502 83.4167 24.8335ZM75.9167 58.6668C75.8863 61.3117 75.4073 63.9323 74.5 66.4168C73.8347 68.2301 72.7662 69.8686 71.375 71.2085C70.0235 72.5856 68.3885 73.652 66.5833 74.3335C64.0988 75.2408 61.4782 75.7198 58.8333 75.7502C54.6667 75.9585 53.125 76.0002 42.1667 76.0002C31.2083 76.0002 29.6667 76.0002 25.5 75.7502C22.7537 75.8016 20.0192 75.3787 17.4167 74.5002C15.6908 73.7838 14.1307 72.7201 12.8333 71.3752C11.4504 70.0366 10.3952 68.3968 9.75001 66.5835C8.73275 64.0633 8.16852 61.3833 8.08334 58.6668C8.08334 54.5002 7.83334 52.9585 7.83334 42.0002C7.83334 31.0418 7.83334 29.5002 8.08334 25.3335C8.10202 22.6296 8.59564 19.9499 9.54168 17.4168C10.2752 15.6581 11.4011 14.0904 12.8333 12.8335C14.0992 11.4009 15.6637 10.2631 17.4167 9.50016C19.9565 8.58368 22.6333 8.10466 25.3333 8.0835C29.5 8.0835 31.0417 7.8335 42 7.8335C52.9583 7.8335 54.5 7.8335 58.6667 8.0835C61.3116 8.11383 63.9321 8.59286 66.4167 9.50016C68.3101 10.2029 70.0096 11.3454 71.375 12.8335C72.7404 14.1134 73.8073 15.6782 74.5 17.4168C75.4261 19.9541 75.9054 22.6326 75.9167 25.3335C76.125 29.5002 76.1667 31.0418 76.1667 42.0002C76.1667 52.9585 76.125 54.5002 75.9167 58.6668ZM42 20.6252C37.7742 20.6334 33.6457 21.894 30.1361 24.2477C26.6265 26.6015 23.8933 29.9426 22.2818 33.8491C20.6704 37.7556 20.253 42.0521 21.0825 46.1957C21.9119 50.3393 23.951 54.1441 26.942 57.1292C29.933 60.1144 33.7417 62.1461 37.8869 62.9674C42.0321 63.7888 46.3278 63.3631 50.2311 61.7441C54.1345 60.125 57.4703 57.3853 59.8172 53.8711C62.1641 50.3569 63.4167 46.226 63.4167 42.0002C63.4222 39.1881 62.8717 36.4027 61.7968 33.8041C60.722 31.2056 59.144 28.8452 57.1536 26.8587C55.1633 24.8722 52.7998 23.2988 50.1992 22.229C47.5985 21.1592 44.8121 20.6142 42 20.6252ZM42 55.8752C39.2558 55.8752 36.5732 55.0614 34.2915 53.5368C32.0097 52.0122 30.2313 49.8452 29.1812 47.3099C28.131 44.7746 27.8562 41.9848 28.3916 39.2933C28.927 36.6018 30.2484 34.1295 32.1889 32.1891C34.1294 30.2486 36.6016 28.9271 39.2931 28.3918C41.9846 27.8564 44.7744 28.1312 47.3097 29.1813C49.8451 30.2315 52.012 32.0099 53.5367 34.2916C55.0613 36.5734 55.875 39.2559 55.875 42.0002C55.875 43.8223 55.5161 45.6265 54.8188 47.3099C54.1216 48.9933 53.0995 50.5229 51.8111 51.8113C50.5227 53.0997 48.9931 54.1217 47.3097 54.819C45.6264 55.5163 43.8221 55.8752 42 55.8752Z" fill="white"/>
</svg>
