<svg width="86" height="47" viewBox="0 0 86 47" fill="none" xmlns="http://www.w3.org/2000/svg">
<path d="M12.9583 16.7501H4.62499C3.51993 16.7501 2.46012 17.189 1.67872 17.9704C0.897315 18.7518 0.458328 19.8117 0.458328 20.9167C0.458328 22.0218 0.897315 23.0816 1.67872 23.863C2.46012 24.6444 3.51993 25.0834 4.62499 25.0834H12.9583C14.0634 25.0834 15.1232 24.6444 15.9046 23.863C16.686 23.0816 17.125 22.0218 17.125 20.9167C17.125 19.8117 16.686 18.7518 15.9046 17.9704C15.1232 17.189 14.0634 16.7501 12.9583 16.7501ZM82.875 4.91672V4.66672C81.6812 3.20751 80.1728 2.03724 78.4627 1.24352C76.7526 0.449804 74.8851 0.0531954 73 0.0833906H39.9583C36.8967 0.055891 33.9314 1.15304 31.625 3.16672V3.16672C29.4708 5.06478 28.0545 7.66131 27.625 10.5001L23.9583 31.3334C23.643 33.1325 23.7258 34.9789 24.201 36.7426C24.6761 38.5063 25.5319 40.1444 26.7083 41.5417C27.8786 42.9344 29.3387 44.0548 30.9867 44.8248C32.6347 45.5949 34.4309 45.996 36.25 46.0001H69.3333C72.3052 46.045 75.1958 45.0295 77.4866 43.1358C79.7774 41.242 81.3185 38.594 81.8333 35.6667L85.5 14.8334C85.7888 13.0888 85.7041 11.3028 85.2516 9.59337C84.7991 7.88393 83.9891 6.28995 82.875 4.91672V4.91672ZM71.4583 8.41672L57.2917 19.9167C56.454 20.5918 55.3878 20.9167 54.3161 20.8235C53.2443 20.7303 52.2502 20.2262 51.5417 19.4167L41.8333 8.41672H71.4583ZM73.4583 34.1251C73.2897 35.1034 72.7772 35.9893 72.0133 36.6233C71.2495 37.2574 70.2843 37.5978 69.2917 37.5834H36.25C35.6449 37.5783 35.0482 37.4415 34.5013 37.1824C33.9545 36.9234 33.4706 36.5484 33.0833 36.0834C32.6951 35.6209 32.412 35.0795 32.2538 34.4967C32.0955 33.914 32.0658 33.3038 32.1667 32.7084L35.5 13.8334L45.2917 24.9167C47.4229 27.3391 50.4083 28.8435 53.6233 29.1153C56.8384 29.3871 60.034 28.4052 62.5417 26.3751L76.875 14.6667L73.4583 34.1251ZM17.125 0.0833906H4.62499C3.51993 0.0833906 2.46012 0.522378 1.67872 1.30378C0.897315 2.08518 0.458328 3.14499 0.458328 4.25006C0.458328 5.35513 0.897315 6.41493 1.67872 7.19633C2.46012 7.97774 3.51993 8.41672 4.62499 8.41672H17.125C18.2301 8.41672 19.2899 7.97774 20.0713 7.19633C20.8527 6.41493 21.2917 5.35513 21.2917 4.25006C21.2917 3.14499 20.8527 2.08518 20.0713 1.30378C19.2899 0.522378 18.2301 0.0833906 17.125 0.0833906Z" fill="white"/>
</svg>
