<svg width="84" height="84" viewBox="0 0 84 84" fill="none" xmlns="http://www.w3.org/2000/svg">
<path d="M73 46.1667C72.0833 46.1667 71.125 45.875 70.2083 45.6667C68.352 45.2576 66.5278 44.7145 64.75 44.0416C62.817 43.3384 60.6923 43.375 58.7846 44.1442C56.877 44.9134 55.3212 46.361 54.4167 48.2083L53.5 50.0833C49.4417 47.8257 45.7124 45.0218 42.4167 41.75C39.1449 38.4542 36.3409 34.725 34.0833 30.6666L35.8333 29.5C37.6807 28.5955 39.1282 27.0397 39.8975 25.132C40.6667 23.2244 40.7032 21.0996 40 19.1666C39.3384 17.3851 38.7956 15.5616 38.375 13.7083C38.1667 12.7916 38 11.8333 37.875 10.875C37.369 7.94006 35.8318 5.28224 33.5401 3.38014C31.2484 1.47805 28.3529 0.456683 25.375 0.499979H12.875C11.0793 0.483119 9.30103 0.853369 7.66128 1.58552C6.02153 2.31768 4.55878 3.39455 3.37262 4.74282C2.18645 6.0911 1.30472 7.67912 0.787443 9.39879C0.270166 11.1185 0.12949 12.9294 0.374993 14.7083C2.59474 32.1641 10.5668 48.3828 23.0319 60.8026C35.497 73.2225 51.7446 81.1354 69.2083 83.2917H70.7917C73.8642 83.2962 76.8308 82.1689 79.125 80.125C80.4432 78.946 81.4962 77.5007 82.2144 75.8846C82.9327 74.2686 83.2999 72.5185 83.2917 70.75V58.25C83.2406 55.3558 82.1867 52.569 80.3097 50.3653C78.4328 48.1616 75.8492 46.6776 73 46.1667V46.1667ZM75.0833 71.1667C75.0826 71.7583 74.9559 72.3429 74.7116 72.8817C74.4673 73.4206 74.1111 73.9012 73.6667 74.2917C73.2025 74.6959 72.6582 74.9976 72.0695 75.1771C71.4807 75.3565 70.8607 75.4098 70.25 75.3333C54.6454 73.3325 40.151 66.1937 29.053 55.0429C17.955 43.892 10.885 29.3639 8.95833 13.75C8.89201 13.1396 8.95013 12.5222 9.12917 11.9349C9.30821 11.3477 9.60445 10.8028 9.99999 10.3333C10.3905 9.88886 10.8711 9.53265 11.4099 9.28838C11.9487 9.04412 12.5334 8.9174 13.125 8.91665H25.625C26.5939 8.89509 27.5401 9.21198 28.3006 9.81277C29.0611 10.4136 29.5884 11.2607 29.7917 12.2083C29.9583 13.3472 30.1667 14.4722 30.4167 15.5833C30.898 17.7797 31.5386 19.9382 32.3333 22.0416L26.5 24.75C26.0012 24.9788 25.5526 25.3039 25.1798 25.7066C24.807 26.1093 24.5175 26.5817 24.3278 27.0966C24.1381 27.6115 24.052 28.1589 24.0744 28.7072C24.0968 29.2555 24.2272 29.7939 24.4583 30.2916C30.455 43.1365 40.7802 53.4617 53.625 59.4583C54.6394 59.8751 55.7772 59.8751 56.7917 59.4583C57.3113 59.2725 57.7888 58.9852 58.1965 58.6133C58.6042 58.2413 58.934 57.7921 59.1667 57.2917L61.75 51.4583C63.904 52.2286 66.1024 52.8687 68.3333 53.375C69.4444 53.625 70.5694 53.8333 71.7083 54C72.6559 54.2033 73.5031 54.7305 74.1039 55.4911C74.7047 56.2516 75.0216 57.1977 75 58.1667L75.0833 71.1667Z" fill="white"/>
</svg>
