<svg width="166" height="160" viewBox="0 0 166 160" fill="none" xmlns="http://www.w3.org/2000/svg">
<path fill-rule="evenodd" clip-rule="evenodd" d="M85.7852 0.0360206C101.496 -0.682995 115.271 9.49381 128.538 18.7928C142.692 28.7146 159.881 37.6645 164.714 55.3621C169.527 72.985 159.777 90.8775 152.791 107.595C146.594 122.426 138.989 136.503 126.876 145.912C114.885 155.225 100.348 161.615 85.7852 159.641C71.9985 157.773 63.7442 142.784 51.4371 135.689C35.8671 126.713 13.2706 129.457 4.4181 112.735C-4.44637 95.9896 1.49371 73.5911 9.39468 56.2707C16.6576 40.3489 32.0889 32.492 45.5382 22.5914C58.3669 13.1476 70.3688 0.741563 85.7852 0.0360206Z" fill="#608AF5"/>
</svg>
